# xmcd
#
# Track frame offsets:
# 150
# 13607
# 29355
# 48372
# 60395
# 71052
# 81204
# 93129
# 114487
# 126465
# 137065
# 148632
# 161117
# 173442
# 184972
# 195970
# 215042
# 227680
# 240630
# 260884
# 278402
# 299545
# 311835
# 323745
# 335540
#
# Disc length: 4604 seconds
#
# Revision: 0
# Processed by: cddbd v1.4PL0 Copyright (c) Steve Scherf et al.
# Submitted via: Axialis_AX_CDPlayer 2.6
#
DISCID=7311fa19
DTITLE=Lightnin' Hopkins - Lightnin' Hopkins Collection
DYEAR=1900
DGENRE=
TTITLE0=Mojo hand
TTITLE1=Coffee for mama
TTITLE2=Good times
TTITLE3=Evil heated woman
TTITLE4=Nothing but the blues
TTITLE5=Hear me talkin
TTITLE6=Shinin' moon
TTITLE7=Don't wake me
TTITLE8=Dont think cause you pretty
TTITLE9=My little kewpie doll
TTITLE10=Lightnin's boogie
TTITLE11=My baby's gone
TTITLE12=Sitting down thinkin'
TTITLE13=Easy on your heels
TTITLE14=Blues for my cookie
TTITLE15=Leave My Mary Alone
TTITLE16=Like I used to live
TTITLE17=Rosie Mae
TTITLE18=You treat po' Lightnin' Wrong
TTITLE19=California Landslide
TTITLE20=Goin' Back Home
TTITLE21=Shaggy Dog
TTITLE22=Lightnin's stomp
TTITLE23=Talk of the Town
TTITLE24=Hopkins' Sky Hop
EXTD=
EXTT0=
EXTT1=
EXTT2=
EXTT3=
EXTT4=
EXTT5=
EXTT6=
EXTT7=
EXTT8=
EXTT9=
EXTT10=
EXTT11=
EXTT12=
EXTT13=
EXTT14=
EXTT15=
EXTT16=
EXTT17=
EXTT18=
EXTT19=
EXTT20=
EXTT21=
EXTT22=
EXTT23=
EXTT24=
PLAYORDER=
